<svg xmlns="http://www.w3.org/2000/svg" version="1.1"><g class="scope"><rect class="scope scope-root" stroke="black" stroke-wdith="1px" fill="none" width="400" height="395" x="0" y="0"></rect><text class="labelName" x="0" y="0" dx="5px" dy="20px">global Program count5.js</text><g class="variables" transform="translate(0, 25)"><text x="0" y="0" dx="5px" dy="20px">app</text><text x="0" y="20" dx="5px" dy="20px">_rep</text></g></g><g class="scope"><rect class="scope" stroke="black" stroke-wdith="1px" fill="none" width="390" height="155" x="5" y="75"></rect><text class="labelName" x="5" y="75" dx="5px" dy="20px">function replyA ↠replyA</text><g class="variables" transform="translate(5, 100)"><text x="0" y="0" dx="5px" dy="20px">replyA</text></g></g><g class="scope"><rect class="scope scope-leaf" stroke="black" stroke-wdith="1px" fill="none" width="380" height="95" x="10" y="130"></rect><text class="labelName" x="10" y="130" dx="5px" dy="20px">function replyA ↠replyA</text><g class="variables" transform="translate(10, 155)"><text x="0" y="0" dx="5px" dy="20px">arguments</text><text x="0" y="20" dx="5px" dy="20px">req</text><text x="0" y="40" dx="5px" dy="20px">res</text></g></g><g class="scope"><rect class="scope" stroke="black" stroke-wdith="1px" fill="none" width="390" height="155" x="5" y="235"></rect><text class="labelName" x="5" y="235" dx="5px" dy="20px">function replyB ↠replyB</text><g class="variables" transform="translate(5, 260)"><text x="0" y="0" dx="5px" dy="20px">replyB</text></g></g><g class="scope"><rect class="scope scope-leaf" stroke="black" stroke-wdith="1px" fill="none" width="380" height="95" x="10" y="290"></rect><text class="labelName" x="10" y="290" dx="5px" dy="20px">function replyB ↠replyB</text><g class="variables" transform="translate(10, 315)"><text x="0" y="0" dx="5px" dy="20px">arguments</text><text x="0" y="20" dx="5px" dy="20px">req</text><text x="0" y="40" dx="5px" dy="20px">res</text></g></g></svg>